<?xml version="1.0" encoding="UTF-8"?>
<!-- Generator: visioncortex VTracer 1.0.0-alpha.2 -->
<svg version="1.1" xmlns="http://www.w3.org/2000/svg" width="1080" height="1080">
<path d="M365,475c2.66,9.4,1.1,22.01,1.09,31.83c-.01,22.72-.05,45.45-.09,68.17c-6.85,1.5-14.03,1.07-21,1c0-.33,0-.67,0-1c-.33,0-.67,0-1,0c0-33.33,0-66.67,0-100c7,0,14,0,21,0ZM260,641c-.33,0-.67,0-1,0c0-45,0-90,0-135c11.55,0,24.78-1.8,36,1c0,44.67,0,89.33,0,134c-11.67,0-23.33,0-35,0Zm468-86c0-.33,0-.67,0-1c2-.67,4-1.33,6-2c0-5,0-10,0-15c-6.05,.05-13.21,.9-19-1c-1.27-5.06-1-9.8-1-15c13.67,0,27.33,0,41,0c.17,10.89,4.44,38.15-5,44c-86.09,53.41-123.54-73.93-52.25-90.16c11.47-2.61,22.2-3.22,33.65-.18c4.49,1.19,23.9,12.76,21.6,17.34c-.6,1.21-6.61,3.74-8.02,4.5c-2.43,1.3-4.27,3.51-7.03,4.21c-3.07,.78-4.03-2.27-6.6-3.6c-20.7-10.71-35.14-5.63-45.58,14.35c-3.83,7.33-4.6,19.88-.77,27.54c4.4,8.8,9.43,15.8,20,17c0,.33,0,.67,0,1c8.11,.13,15.04-.91,23-2Zm137,16c2.01-8.72,6.22-15.74,9.07-23.61c7.01-19.34,14.53-38.2,21.07-57.82c1.81-5.43,5.08-9.52,5.86-14.57c4.58-.07,19.42-1.74,23,0c2.96,1.44,37.11,91.55,39,101c-7,0-14,0-21,0c-3.34-6.67-4.45-14.61-8-21c-13.67,0-27.33,0-41,0c-.77,2.32-1.28,5.28-3,7c-1.11,8.11-1.11,8.11-4,11c-.33,1-.67,2-1,3c-7.06,.07-15.18,.95-22-1c.67-1.33,1.33-2.67,2-4Zm-214,4c0,.33,0,.67,0,1c-24,0-48,0-72,0c0-33.67,0-67.33,0-101c23.67,0,47.33,0,71,0c0,6,0,12,0,18c-16.33,0-32.67,0-49,0c0,7.33,0,14.67,0,22c12.51-.06,26.74-1.45,39,1c0,5.67,0,11.33,0,17c-13,0-26,0-39,0c0,8,0,16,0,24c17,0,34,0,51,0c0,6,0,12,0,18c-.33,0-.67,0-1,0Zm181-2c-5.09-6.79-14.18-25.93-20-30c-2.18-1.52-13.96-.11-17,0c0,11,0,22,0,33c-7.33,0-14.67,0-22,0c0-33.67,0-67.33,0-101c26.41,0,66.85-10.5,78,21c2.73,7.71,3.56,15.32,.7,23.43C847.29,531.98,836.85,533.3,834,539c6.18,6.18,15.98,22.64,19,31c1.13,3.75,1.13,3.75,0,6c-6.67,0-13.33,0-20,0c-.33-1-.67-2-1-3Zm-679,5c12,0,24,0,36,0c0,20.67,0,41.33,0,62c-.33,0-.67,0-1,0c0,.33,0,.67,0,1c-12,0-24,0-36,0c-.05-16.5-3.46-48.23,1-63Zm206,29c1.33-.33,2.67-.67,4-1c1.37,4.12,3.42,7.94,5,12c0,4.66,6.96,12.78,8,19c-5.24,1.75-6.34-2.58-8-7c-5.4-.09-10.69-.23-16,1c-1.08,3.89-.96,5.65-5,7c-2.3-5.87,9.45-24.26,12-31Zm292,15c0-5.02,5.76-15.59,11-16c.33,1,.67,2,1,3c3.05,9.16,10.69,20.49,12,29c-1.67,0-3.33,0-5,0c-1.48-10.98-9.28-8.31-18-8c-1.55,5.1-1.86,9.05-8,7c1.82-3.64,4.62-12.62,7-15ZM451,637c0-10,0-20,0-30c7.33,0,14.67,0,22,0c.33,1.33,.67,2.67,1,4c-6.33,0-12.67,0-19,0c0,3,0,6,0,9c4,0,8,0,12,0c-.33,1.33-.67,2.67-1,4c-3.67,0-7.33,0-11,0c0,3,0,6,0,9c6.33,0,12.67,0,19,0c0,1.67,0,3.33,0,5c-7.67,0-15.33,0-23,0c0-.33,0-.67,0-1Zm456-16c2.27,2.27,1.61,2.87,5,4c.94,16.3-12.32,13.18-24,13c0-10.67,0-21.33,0-32c6.69,0,23.2-1.28,22.9,8.58c-.11,3.6-1.03,4.51-3.9,6.42ZM755,638c-15,0-10.16-6.08-18-10c-1.05-42.93,45.82-13.82,28,4c-6.29,5.57-6.29,5.57-10,6Zm192-5c6,0,12,0,18,0c0,1.67,0,3.33,0,5c-7.67,0-15.33,0-23,0c0-10.67,0-21.33,0-32c1.67,0,3.33,0,5,0c0,9,0,18,0,27ZM0,1080c360,0,720,0,1080,0c0-360,0-720,0-1080C720,0,360,0,0,0C0,360,0,720,0,1080ZM252,432c17,0,34,0,51,0c.69,2.77,.35,3.67,3,5c-1.99,15.77-1.07,32.12-1,48c-6.74,3.37-13.78-7.34-20-10c-11.82,9.46-22.61,21.45-33.86,31.82C218.02,537.37,174.76,564.95,128,564c-.33-1.32-.66-2.64-1-4c-1.65,0-3.3,0-5,0c.33-.99,.66-1.98,1-3c8.11,.31,13.21-2.98,20.52-5.74c36.07-13.59,62.91-37.44,90.75-63.44c2.89-2.7,4.23-6.3,6.89-8.72c5.04-4.56,24.34-20.88,25.65-26.2c.76-3.07-12.41-16.1-14.81-20.9Zm155,80c-4.46,14.77-1.05,46.49-1,63c-6.69,1.34-13.19,1-20,1c0-33.67,0-67.33,0-101c3.43,0,15.52-1.21,18,0c2.66,1.3,43.86,57.18,46,62c.66-.33,1.32-.66,2-1c0-20.33,0-40.67,0-61c6.67,0,13.33,0,20,0c4.56,31.94,1.06,68.54,1,101c-6.33,0-12.67,0-19,0c-4.04-12.13-37.38-50.71-47-64Zm107-19c-10,0-20,0-30,0c0-6,0-12,0-18c27.33,0,54.67,0,82,0c0,5.67,0,11.33,0,17c-9.76,1.95-20.07,1-30,1c0,27.33,0,54.67,0,82c-6.93,1.39-13.98,1.07-21,1c-4.87-19.94-1.05-60.94-1-83ZM206,641c0-30.33,0-60.67,0-91c12,0,24,0,36,0c0,30,0,60,0,90c-11.59,2.32-24.2,1-36,1Zm199-28c-3.96-1.98-7.6-2.37-11.98-2.08c-1.32,.09-1.68,.49-2.65,1.35c-8.95,7.98,26.48,7.83,15.65,21.51c-2.05,2.6-4.71,4.19-8.03,4.39c-5.25,.33-8.26-1.59-12.99-3.17c.33-1.32,.66-2.64,1-4c5.25,1.02,9.57,2.12,15,2c.66-1.32,1.32-2.64,2-4c-5.36-3.24-22.19-8.98-17.12-17.48c1.72-2.88,4.53-2.35,6.12-5.52c6.6-.22,9.23-.77,14,4c-.33,.99-.66,1.98-1,3Zm13,18c5.25,1.02,9.57,2.12,15,2c.66-1.32,1.32-2.64,2-4c-4.12-4.12-15.44-5.42-17.37-10.31c-4.76-12.01,13.92-16.14,21.37-8.69c-.33,.66-.66,1.32-1,2c-5.32-.67-9.82-1.55-15,0c-.33,1.65-.66,3.3-1,5c3.99,1.64,14.61,4.43,17,8c10.04,14.99-15.57,12.14-22,10c.33-1.32,.66-2.64,1-4Zm87-21c-5.11,5.11-18.52-5.39-15,8c33.97,5.66,7.11,30.63-6,15c.33-.66,.66-1.32,1-2c5.25,1.02,9.57,2.12,15,2c.33-1.65,.66-3.3,1-5c-17.05-6.28-28.11-22.44-1-22c1.26,2.52,2.51,2.88,5,4Zm12,21c5.25,1.02,9.57,2.12,15,2c.33-1.65,.66-3.3,1-5c-26.09-9.37-16.9-29.95,5-19c-.33,.99-.66,1.98-1,3c-5.02-.55-9.93-1.07-15-1c-.33,1.65-.66,3.3-1,5c3.75,3.17,15.64,5.79,17,10c4.79,14.85-14.35,13.1-22,8c.33-.99,.66-1.98,1-3Zm63-4c-3.21,1.61-2.81,4.63-5.28,7.2c-6.47,6.72-16.57,4.46-22.41-1.57c-2.65-2.75-4.97-9.87-3.87-13.58c6.68-22.53,32.06-14.13,31.56,7.95Zm16,11c-1.32-.33-2.64-.66-4-1c0-10.33,0-20.67,0-31c10.1-.24,21.11-2.28,24.53,10.07c.54,1.95,.14,5.41-1.53,6.93c-1.27,1.16-3.3,1.3-5,3c1.32,3.95,4.58,6.66,7,10c-.66,.66-1.32,1.32-2,2c-9.15-3.05-6.91-11.93-19-11c0,3.67,0,7.33,0,11Zm131-5c0,14.34-35.36-.77-23-18c3.09-4.32,5.53-7.77,11.4-9c5.92-1.24,7.75,1.74,12.6,4c-.33,.99-.66,1.98-1,3c-3.06-.77-10.08-3.31-13-2c-7.07,3.16-9.78,14.75-3.19,19.69C714.99,633.82,722.1,633,727,633Zm79,5c-8.28-2.07-14.62-20-21-20c0,6.33,0,12.67,0,19c-1.65,.33-3.3,.66-5,1c0-10.33,0-20.67,0-31c9.81,1.96,14.61,19,21,19c-.05-5.44-1.4-15.19,1-20c1.32,.33,2.64,.66,4,1c0,10.33,0,20.67,0,31Zm123,0c-1.65,0-3.3,0-5,0c-.05-9.38-1.5-21.32,.04-30.42c.06-.39,.53-1.47,.96-1.58c.52-.13,3.32,.83,4,1c0,10.33,0,20.67,0,31Zm-296,0c-1.32-.33-2.64-.66-4-1c0-10,0-20,0-30c1.32,.33,2.64,.66,4,1c0,10,0,20,0,30Zm209-31c-.33,1.32-.66,2.64-1,4c-2.64,0-5.28,0-8,0c0,9,0,18,0,27c-1.65,0-3.3,0-5,0c0-9,0-18,0-27c-3.3,0-6.6,0-10,0c0-1.32,0-2.64,0-4c8,0,16,0,24,0Zm5,31c1.52-11.12,9.53-20.58,13-31c1.65,.33,3.3,.66,5,1c1.1,7,13.59,24.82,11,30c-4.79-.32-4.96-2.93-6-7c-5.31-1.23-10.6-1.09-16-1c-1.52,4.55-1.71,7.29-7,8Z" fill="#E0DDD9"/>
<path d="M252,432c2.4,4.8,15.57,17.83,14.81,20.9c-1.31,5.32-20.61,21.64-25.65,26.2c-2.66,2.42-4,6.02-6.89,8.72c-27.84,26-54.68,49.85-90.75,63.44c-7.31,2.76-12.41,6.05-20.52,5.74c-.34,1.02-.67,2.01-1,3c1.7,0,3.35,0,5,0c.34,1.36,.67,2.68,1,4c46.76,.95,90.02-26.63,123.14-57.18C262.39,496.45,273.18,484.46,285,475c6.22,2.66,13.26,13.37,20,10c-.07-15.88-.99-32.23,1-48c-2.65-1.33-2.31-2.23-3-5c-17,0-34,0-51,0Z" fill="#F27C2D"/>
<g fill="#0E2E49">
<path d="M715,536c6.33,0,12.67,0,19,0c-5-1.25-9.9-1.08-15-1c1.74-1.74,5.38-1.1,7.73-1.07c13.78,.14,10.56,6.17,10.27,18.07c-3.01,1.58-5.64,2.44-9,3c-7.96,1.09-14.89,2.13-23,2c-1,1-1,1-4,3c-3.01-3.01-4.77-1.25-8-3c-4.98-2.7-7.58-12.94-8-18c-3.83-7.66-3.06-20.21,.77-27.54c10.44-19.98,24.88-25.06,45.58-14.35c2.57,1.33,3.53,4.38,6.6,3.6c2.76-.7,4.6-2.91,7.03-4.21c1.41-.76,7.42-3.29,8.02-4.5c2.3-4.58-17.11-16.15-21.6-17.34c-11.45-3.04-22.18-2.43-33.65,.18C626.46,491.07,663.91,618.41,750,565c9.44-5.85,5.17-33.11,5-44c-13.67,0-27.33,0-41,0c0,5.2-.27,9.94,1,15Z"/>
<path d="M407,512c9.62,13.29,42.96,51.87,47,64c6.33,0,12.67,0,19,0c.06-32.46,3.56-69.06-1-101c-6.67,0-13.33,0-20,0c0,20.33,0,40.67,0,61c-.68,.34-1.34,.67-2,1c-2.14-4.82-43.34-60.7-46-62c-2.48-1.21-14.57,0-18,0c0,33.67,0,67.33,0,101c6.81,0,13.31,.34,20-1c-.05-16.51-3.46-48.23,1-63Z"/>
<path d="M514,493c-.05,22.06-3.87,63.06,1,83c7.02,.07,14.07,.39,21-1c0-27.33,0-54.67,0-82c9.93,0,20.24,.95,30-1c0-5.67,0-11.33,0-17c-27.33,0-54.67,0-82,0c0,6,0,12,0,18c10,0,20,0,30,0Z"/>
<path d="M601,557c0-8,0-16,0-24c13,0,26,0,39,0c0-5.67,0-11.33,0-17c-12.26-2.45-26.49-1.06-39-1c0-7.33,0-14.67,0-22c16.33,0,32.67,0,49,0c0-6,0-12,0-18c-23.67,0-47.33,0-71,0c0,33.67,0,67.33,0,101c24,0,48,0,72,0c0-.33,0-.67,0-1c-1.33-.33-2.67-.67-4-1c3.03-4.54,2.16-8.76,2-14c-14.25,.06-35.58,2.86-49-1c14.79,.06,37.08,3.03,51-1c-14.55,.06-36.33,2.95-50-1Z"/>
<path d="M853,570c-3.02-8.36-12.82-24.82-19-31c2.85-5.7,13.29-7.02,17.7-19.57c2.86-8.11,2.03-15.72-.7-23.43c-11.15-31.5-51.59-21-78-21c0,33.67,0,67.33,0,101c7.33,0,14.67,0,22,0c0-11,0-22,0-33c3.04-.11,14.82-1.52,17,0c5.82,4.07,14.91,23.21,20,30c.33-.67,.67-1.33,1-2c5.62-.31,12.7,4.91,15-2c1.67,.33,3.33,.67,5,1Zm-59-77c9.33,0,18.67,0,28,0c1.82,3.63,6,4.2,8.04,9.41c9.17,23.42-22.65,20.67-36.04,20.59c0-10,0-20,0-30Z"/>
<path d="M890,562c-1.13-4.24-1.08-6.09,1-10c10.82,0,26.85-2.19,37,1c-9.57-.06-22.96-1.8-32,1c10.84-.06,27.86-2.31,38,1c3.55,6.39,4.66,14.33,8,21c7,0,14,0,21,0c-1.89-9.45-36.04-99.56-39-101c-3.58-1.74-18.42-.07-23,0c-.78,5.05-4.05,9.14-5.86,14.57c-6.54,19.62-14.06,38.48-21.07,57.82c-2.85,7.87-7.06,14.89-9.07,23.61c4.85,4.85,16.61,5.18,19-2c.67,0,1.33,0,2,0c0,1.33,0,2.67,0,4c2.89-2.89,2.89-2.89,4-11Zm22-61c2.06,1.03,14,31.06,14,35c-8.67,0-17.33,0-26,0c2.44-12.19,9.21-22.93,12-35Z"/>
<path d="M907,621l-1-3c-3.63,2.33-6.77,2.16-11,2c0,.67,0,1.33,0,2c3,0,6,0,9,0c-4.13,1.03-7.78,1.07-12,1c-.88,3.73-1.09,7.17-1,11c4.41,1.1,8.48,1.08,13,1c-3.67-1.18-7.17-1.07-11-1c0-.33,0-.67,0-1v-8c0-.33,0-.67,0-1c5.75,.17,9.62,1.38,14-3Z"/>
<path d="M345,575c6.85-2.28,13.2-.64,20-2c0-32.67,0-65.33,0-98c-7,0-14,0-21,0c0,33.33,0,66.67,0,100c.33,0,.67,0,1,0Z"/>
</g>
<g fill="#363C40">
<path d="M345,575c0,.33,0,.67,0,1c6.97,.07,14.15,.5,21-1c.04-22.72,.08-45.45,.09-68.17c.01-9.82,1.57-22.43-1.09-31.83c0,32.67,0,65.33,0,98c-6.8,1.36-13.15-.28-20,2Z"/>
<path d="M705,557c0-.33,0-.67,0-1c-10.57-1.2-15.6-8.2-20-17c.42,5.06,3.02,15.3,8,18c3.23,1.75,4.99-.01,8,3c3-2,3-2,4-3Z"/>
<path d="M405,613c.34-1.02,.67-2.01,1-3c-4.77-4.77-7.4-4.22-14-4c-1.59,3.17-4.4,2.64-6.12,5.52c-5.07,8.5,11.76,14.24,17.12,17.48c-.68,1.36-1.34,2.68-2,4c-5.43,.12-9.75-.98-15-2c-.34,1.36-.67,2.68-1,4c4.73,1.58,7.74,3.5,12.99,3.17c3.32-.2,5.98-1.79,8.03-4.39c10.83-13.68-24.6-13.53-15.65-21.51c.97-.86,1.33-1.26,2.65-1.35c4.38-.29,8.02,.1,11.98,2.08Z"/>
<path d="M727,633c-4.9,0-12.01,.82-16.19-2.31c-6.59-4.94-3.88-16.53,3.19-19.69c2.92-1.31,9.94,1.23,13,2c.34-1.02,.67-2.01,1-3c-4.85-2.26-6.68-5.24-12.6-4c-5.87,1.23-8.31,4.68-11.4,9c-12.36,17.23,23,32.34,23,18Z"/>
</g>
<g fill="#E0DDD9">
<path d="M794,493c0,10,0,20,0,30c13.39,.08,45.21,2.83,36.04-20.59c-2.04-5.21-6.22-5.78-8.04-9.41c-9.33,0-18.67,0-28,0Z"/>
<path d="M912,501c-2.79,12.07-9.56,22.81-12,35c8.67,0,17.33,0,26,0c0-3.94-11.94-33.97-14-35Z"/>
</g>
<path d="M295,507c-11.22-2.8-24.45-1-36-1c0,45,0,90,0,135c.33,0,.67,0,1,0c0-43,0-86,0-129c.33,.33,.67,.67,1,1c6.04-5,24.55-5.45,30,0c-1.58,4.33-2.45,8.43-3,13c1-.67,2-1.33,3-2c0,12,0,24,0,36c.67,0,1.33,0,2,0c-.11-17.15,1.16-33.92,1-51c-1-.33-2-.67-3-1c1.33-.33,2.67-.67,4-1Z" fill="#648B3A"/>
<path d="M260,641c11.67,0,23.33,0,35,0c0-44.67,0-89.33,0-134c-1.33,.33-2.67,.67-4,1c1,.33,2,.67,3,1c.16,17.08-1.11,33.85-1,51c-.67,0-1.33,0-2,0c0-12,0-24,0-36c-1,.67-2,1.33-3,2c.55-4.57,1.42-8.67,3-13c-5.45-5.45-23.96-5-30,0c-.33-.33-.67-.67-1-1c0,43,0,86,0,129Z" fill="#4F7846"/>
<path d="M728,555c3.36-.56,5.99-1.42,9-3c.29-11.9,3.51-17.93-10.27-18.07c-2.35-.03-5.99-.67-7.73,1.07c5.1-.08,10-.25,15,1c-6.33,0-12.67,0-19,0c5.79,1.9,12.95,1.05,19,1c0,5,0,10,0,15c-2,.67-4,1.33-6,2c0,.33,0,.67,0,1Z" fill="#363C40"/>
<g fill="#4F7846">
<path d="M206,641c11.8,0,24.41,1.32,36-1c0-30,0-60,0-90c-12,0-24,0-36,0c0,30.33,0,60.67,0,91Z"/>
<path d="M188,640c.05-16.79,3.66-43.35-1-59c0,2.33,0,4.67,0,7c-.89-2.67-1.48-5.24-2-8c-10.33,0-20.67,0-31,0c-.33-.67-.67-1.33-1-2c-4.46,14.77-1.05,46.5-1,63c12,0,24,0,36,0c0-.33,0-.67,0-1Z"/>
</g>
<g fill="#363C40">
<path d="M934,555c-10.14-3.31-27.16-1.06-38-1c9.04-2.8,22.43-1.06,32-1c-10.15-3.19-26.18-1-37-1c-2.08,3.91-2.13,5.76-1,10c1.72-1.72,2.23-4.68,3-7c13.67,0,27.33,0,41,0Z"/>
<path d="M651,575c.33,0,.67,0,1,0c0-6,0-12,0-18c-17,0-34,0-51,0c13.67,3.95,35.45,1.06,50,1c-13.92,4.03-36.21,1.06-51,1c13.42,3.86,34.75,1.06,49,1c.16,5.24,1.03,9.46-2,14c1.33,.33,2.67,.67,4,1Z"/>
<path d="M886,573c0-1.33,0-2.67,0-4c-.67,0-1.33,0-2,0c-2.39,7.18-14.15,6.85-19,2c-.67,1.33-1.33,2.67-2,4c6.82,1.95,14.94,1.07,22,1c.33-1,.67-2,1-3Z"/>
<path d="M832,573c.33,1,.67,2,1,3c6.67,0,13.33,0,20,0c1.13-2.25,1.13-2.25,0-6c-1.67-.33-3.33-.67-5-1c-2.3,6.91-9.38,1.69-15,2c-.33,.67-.67,1.33-1,2Z"/>
<path d="M418,631c-.34,1.36-.67,2.68-1,4c6.43,2.14,32.04,4.99,22-10c-2.39-3.57-13.01-6.36-17-8c.34-1.7,.67-3.35,1-5c5.18-1.55,9.68-.67,15,0c.34-.68,.67-1.34,1-2c-7.45-7.45-26.13-3.32-21.37,8.69c1.93,4.89,13.25,6.19,17.37,10.31c-.68,1.36-1.34,2.68-2,4c-5.43,.12-9.75-.98-15-2Z"/>
<path d="M505,610c-2.49-1.12-3.74-1.48-5-4c-27.11-.44-16.05,15.72,1,22c-.34,1.7-.67,3.35-1,5c-5.43,.12-9.75-.98-15-2c-.34,.68-.67,1.34-1,2c13.11,15.63,39.97-9.34,6-15c-3.52-13.39,9.89-2.89,15-8Z"/>
<path d="M517,631c-.34,1.02-.67,2.01-1,3c7.65,5.1,26.79,6.85,22-8c-1.36-4.21-13.25-6.83-17-10c.34-1.7,.67-3.35,1-5c5.07-.07,9.98,.45,15,1c.34-1.02,.67-2.01,1-3c-21.9-10.95-31.09,9.63-5,19c-.34,1.7-.67,3.35-1,5c-5.43,.12-9.75-.98-15-2Z"/>
<path d="M580,627c.5-22.08-24.88-30.48-31.56-7.95c-1.1,3.71,1.22,10.83,3.87,13.58c5.84,6.03,15.94,8.29,22.41,1.57c2.47-2.57,2.07-5.59,5.28-7.2Zm-22,5c-8.6-8.6-2.97-26.1,9.72-20.92c13.8,5.63,6.83,26.89-9.72,20.92Z"/>
<path d="M596,638c0-3.67,0-7.33,0-11c12.09-.93,9.85,7.95,19,11c.68-.68,1.34-1.34,2-2c-2.42-3.34-5.68-6.05-7-10c1.7-1.7,3.73-1.84,5-3c1.67-1.52,2.07-4.98,1.53-6.93C613.11,603.72,602.1,605.76,592,606c0,10.33,0,20.67,0,31c1.36,.34,2.68,.67,4,1Zm0-16c0-3.67,0-7.33,0-11c20.74-.57,21.41,11.32,0,11Z"/>
<path d="M759,613c1,0,2,0,3,0c2.97,6.92,.92,12.76,3,19c17.82-17.82-29.05-46.93-28-4c7.84,3.92,3,10,18,10c0-.33,0-.67,0-1c-1.67-.67-3.33-1.33-5-2c1.19-1.19,8.49-.06,12-2c0-.67,0-1.33,0-2c-1.33,1-2.67,2-4,3c0-.67,0-1.33,0-2c-20.21,10.1-22.74-29.85,1-19Z"/>
<path d="M806,638c0-10.33,0-20.67,0-31c-1.36-.34-2.68-.67-4-1c-2.4,4.81-1.05,14.56-1,20c-6.39,0-11.19-17.04-21-19c0,10.33,0,20.67,0,31c1.7-.34,3.35-.67,5-1c0-6.33,0-12.67,0-19c6.38,0,12.72,17.93,21,20Z"/>
<path d="M895,620c-.67,0-1.33,0-2,0c0-3,0-6,0-9c7.14-.21,13-1.56,13,7l1,3c-4.38,4.38-8.25,3.17-14,3c0,.33,0,.67,0,1c7.3-.2,14.51-2.74,14,7c-4.72,.77-9.22,1.1-14,1c0,.33,0,.67,0,1c3.83-.07,7.33-.18,11,1c-4.52,.08-8.59,.1-13-1c-.09-3.83,.12-7.27,1-11c4.22,.07,7.87,.03,12-1c-3,0-6,0-9,0c0-.67,0-1.33,0-2Zm12,1c2.87-1.91,3.79-2.82,3.9-6.42c.3-9.86-16.21-8.58-22.9-8.58c0,10.67,0,21.33,0,32c11.68,.18,24.94,3.3,24-13c-3.39-1.13-2.73-1.73-5-4Z"/>
<path d="M368,618c-.33,.33-.67,.67-1,1c.67,1.67,1.33,3.33,2,5c-4.38,2.92-7.92,2.17-13,2c1.13-4.85,3.31-8.97,4-14c-.67,.67-1.33,1.33-2,2c.59-3.51,1.04-4.03,4-6c-1-.33-2-.67-3-1c-2.55,6.74-14.3,25.13-12,31c4.04-1.35,3.92-3.11,5-7c5.31-1.23,10.6-1.09,16-1c1.66,4.42,2.76,8.75,8,7c-1.04-6.22-8-14.34-8-19Z"/>
<path d="M651,622c-2.38,2.38-5.18,11.36-7,15c6.14,2.05,6.45-1.9,8-7c8.72-.31,16.52-2.98,18,8c1.67,0,3.33,0,5,0c-1.31-8.51-8.95-19.84-12-29c-1.33-.67-2.67-1.33-4-2c1,2,1,2,3,4c-.67,.33-1.33,.67-2,1c.76,4.57,2.88,8.53,4,13c-3,0-6,0-9,0c-.33-1.33-.67-2.67-1-4c-1,.33-2,.67-3,1Z"/>
<path d="M451,637c0,.33,0,.67,0,1c7.67,0,15.33,0,23,0c0-1.67,0-3.33,0-5c-6.33,0-12.67,0-19,0c0-3,0-6,0-9c3.67,0,7.33,0,11,0c.33-1.33,.67-2.67,1-4c-4,0-8,0-12,0c-.33,.33-.67,.67-1,1c0-3.67,0-7.33,0-11c6,0,12,0,18,0c-6.43-1.61-13.42-1.07-20-1c-.14,7-2.69,24.2,3,28c-1.33,0-2.67,0-4,0Z"/>
</g>
<path d="M188,640c.33,0,.67,0,1,0c0-20.67,0-41.33,0-62c-12,0-24,0-36,0c.33,.67,.67,1.33,1,2c10.33,0,20.67,0,31,0c.52,2.76,1.11,5.33,2,8c0-2.33,0-4.67,0-7c4.66,15.65,1.05,42.21,1,59Z" fill="#648B3A"/>
<g fill="#4F7846">
<path d="M368,618c-1.58-4.06-3.63-7.88-5-12c-1.33,.33-2.67,.67-4,1c1,.33,2,.67,3,1c-2.96,1.97-3.41,2.49-4,6c.67-.67,1.33-1.33,2-2c-.69,5.03-2.87,9.15-4,14c5.08,.17,8.62,.92,13-2c-.67-1.67-1.33-3.33-2-5c.33-.33,.67-.67,1-1Z"/>
<path d="M663,609c-.33-1-.67-2-1-3c-5.24,.41-11,10.98-11,16c1-.33,2-.67,3-1c.33,1.33,.67,2.67,1,4c3,0,6,0,9,0c-1.12-4.47-3.24-8.43-4-13c.67-.33,1.33-.67,2-1c-2-2-2-2-3-4c1.33,.67,2.67,1.33,4,2Z"/>
</g>
<g fill="#363C40">
<path d="M929,638c0-10.33,0-20.67,0-31c-.68-.17-3.48-1.13-4-1c-.43,.11-.9,1.19-.96,1.58c-1.54,9.1-.09,21.04-.04,30.42c1.7,0,3.35,0,5,0Z"/>
<path d="M847,638c5.29-.71,5.48-3.45,7-8c5.4-.09,10.69-.23,16,1c1.04,4.07,1.21,6.68,6,7c2.59-5.18-9.9-23-11-30c-1.7-.34-3.35-.67-5-1c-3.47,10.42-11.48,19.88-13,31Zm14-25c3.4,1.7,4.55,8.47,6,12c-3.3,0-6.6,0-10,0c.65-4.71,4-7.53,4-12Z"/>
<path d="M947,633c0-9,0-18,0-27c-1.67,0-3.33,0-5,0c0,10.67,0,21.33,0,32c7.67,0,15.33,0,23,0c0-1.67,0-3.33,0-5c-6,0-12,0-18,0Zm0,0c5.32,1.67,11.48,1.07,17,1c-.33,1-.67,2-1,3c-3.75-3.75-14.55-2-20-2c-.04-6.08-2.02-23.98,2-28c2.28,7.72,1.07,17.92,1,26c.33,0,.67,0,1,0Z"/>
<path d="M842,607c-8,0-16,0-24,0c0,1.36,0,2.68,0,4c3.4,0,6.7,0,10,0c0,9,0,18,0,27c1.7,0,3.35,0,5,0c0-9,0-18,0-27c2.72,0,5.36,0,8,0c.34-1.36,.67-2.68,1-4Z"/>
</g>
<path d="M455,620c0-3,0-6,0-9c6.33,0,12.67,0,19,0c-.33-1.33-.67-2.67-1-4c-7.33,0-14.67,0-22,0c0,10,0,20,0,30c1.33,0,2.67,0,4,0c-5.69-3.8-3.14-21-3-28c6.58-.07,13.57-.61,20,1c-6,0-12,0-18,0c0,3.67,0,7.33,0,11c.33-.33,.67-.67,1-1Z" fill="#0E2E49"/>
<path d="M633,638c0-10,0-20,0-30c-1.36-.34-2.68-.67-4-1c0,10,0,20,0,30c1.36,.34,2.68,.67,4,1Z" fill="#363C40"/>
<path d="M947,633c-.33,0-.67,0-1,0c.07-8.08,1.28-18.28-1-26c-4.02,4.02-2.04,21.92-2,28c5.45,0,16.25-1.75,20,2c.33-1,.67-2,1-3c-5.52,.07-11.68,.67-17-1Z" fill="#0E2E49"/>
<g fill="#E0DDD9">
<path d="M558,632c16.55,5.97,23.52-15.29,9.72-20.92C555.03,605.9,549.4,623.4,558,632Z"/>
<path d="M758,632c6.53-5.39,7.25-12.75,1-19c-23.74-10.85-21.21,29.1-1,19Z"/>
<path d="M596,622c21.41,.32,20.74-11.57,0-11c0,3.67,0,7.33,0,11Z"/>
<path d="M906,618c0-8.56-5.86-7.21-13-7c0,3,0,6,0,9c.67,0,1.33,0,2,0c4.23,.16,7.37,.33,11-2Z"/>
</g>
<path d="M765,632c-2.08-6.24-.03-12.08-3-19c-1,0-2,0-3,0c6.25,6.25,5.53,13.61-1,19c0,.67,0,1.33,0,2c1.33-1,2.67-2,4-3c0,.67,0,1.33,0,2c-3.51,1.94-10.81,.81-12,2c1.67,.67,3.33,1.33,5,2c0,.33,0,.67,0,1c3.71-.43,3.71-.43,10-6Z" fill="#0E2E49"/>
<g fill="#E0DDD9">
<path d="M861,613c0,4.47-3.35,7.29-4,12c3.4,0,6.7,0,10,0c-1.45-3.53-2.6-10.3-6-12Z"/>
<path d="M893,633c4.78,.1,9.28-.23,14-1c.51-9.74-6.7-7.2-14-7v8Z"/>
</g>
</svg>
